<svg width="1200" height="170" viewBox="0 0 1200 170" fill="none" xmlns="http://www.w3.org/2000/svg">
<rect width="1200" height="170" rx="20" fill="url(#paint0_linear_5702_180)"/>
<path d="M700.772 96.33C402.646 33.2448 109.372 26.5858 0 31.1419V155C0 163.284 6.71572 170 15 170H1185C1193.28 170 1200 163.284 1200 155V133.31C1157.81 139.619 998.897 159.415 700.772 96.33Z" fill="url(#paint1_linear_5702_180)" fill-opacity="0.2"/>
<path d="M499.228 116.723C797.354 71.3346 1090.63 66.5435 1200 69.8216V155C1200 163.284 1193.28 170 1185 170H15C6.7157 170 0 163.284 0 155V129.237C42.1903 133.776 201.103 162.112 499.228 116.723Z" fill="url(#paint2_linear_5702_180)" fill-opacity="0.2"/>
<defs>
<linearGradient id="paint0_linear_5702_180" x1="102" y1="1.16331e-05" x2="954.526" y2="277.722" gradientUnits="userSpaceOnUse">
<stop stop-color="#384C65"/>
<stop offset="1" stop-color="#1F2E40"/>
</linearGradient>
<linearGradient id="paint1_linear_5702_180" x1="600" y1="30" x2="600" y2="231.5" gradientUnits="userSpaceOnUse">
<stop stop-color="#07AB67"/>
<stop offset="1" stop-color="#223244" stop-opacity="0"/>
</linearGradient>
<linearGradient id="paint2_linear_5702_180" x1="600" y1="69" x2="600" y2="214.368" gradientUnits="userSpaceOnUse">
<stop stop-color="#07AB67"/>
<stop offset="1" stop-color="#223244" stop-opacity="0"/>
</linearGradient>
</defs>
</svg>
