<svg width="121" height="132" viewBox="0 0 121 132" fill="none" xmlns="http://www.w3.org/2000/svg">
<path fill-rule="evenodd" clip-rule="evenodd" d="M102.054 0H88.8077V38.0975L102.054 34.4301V0ZM75.1999 6.15144V41.8603L74.5967 42.0292L61.9539 45.5518V6.15144H75.1999ZM51.0247 13.3419H37.7787V52.2597L51.0247 48.5681V13.3419ZM26.6552 21.9799V55.3242L26.052 55.4931L13.4333 59.0158V21.9799H26.6552ZM92.9822 42.4177L102.054 38.316L110.957 34.2869L110.956 34.2873L102.054 38.5331L93.8752 42.4177L29.6234 72.9391L37.7302 96.753L42.1938 75.6413L97.4702 42.4177L102.054 39.643L110.952 34.2901L102.054 40.0049L98.3143 42.4177L45.5472 76.3169L77.1061 97.4527L110.957 34.287L110.957 34.2869L110.957 34.2867L102.054 36.7718L88.8081 40.4392L75.2002 44.2031L61.9541 47.8946L51.0243 50.9106L37.7783 54.6021L26.6555 57.6663L13.4094 61.3578L2.02119 64.5185L28.0066 71.7568L92.9822 42.4177ZM53.9435 84.5201L39.7806 97.2113L44.8715 77.4266L53.9435 84.5201ZM116.072 90.1649L120.077 88.6931L118.991 92.7948C118.943 92.9396 115.42 106.258 117.447 114.799L113.128 115.813C111.898 110.577 112.404 104.087 113.176 99.1403C108.785 104.473 99.9785 113.955 87.7217 121.41C77.2503 127.804 66.417 131.327 55.5354 131.906C53.0986 132.05 50.6617 132.026 48.2248 131.857C37.0537 131.109 25.9068 127.249 14.977 120.349L17.3415 116.609C39.9973 130.916 62.8461 131.302 85.2848 117.719C97.1314 110.553 105.769 101.143 109.919 96.1003C100.871 97.3308 90.8824 96.5587 90.3274 96.5104L90.6894 92.0951C90.8582 92.1192 107.241 93.398 116.072 90.1649ZM12.4682 128.092C10.9964 127.803 9.597 127.272 8.31824 126.524C7.06361 125.752 5.90548 124.811 4.96451 123.677C4.02353 122.543 3.27557 121.264 2.76889 119.913C2.23809 118.562 1.99681 117.09 1.97268 115.643C1.94855 114.195 2.1657 112.747 2.62413 111.372C3.08255 109.997 3.78225 108.718 4.67497 107.56C5.56769 106.426 6.65343 105.437 7.88394 104.64C9.09032 103.844 10.4656 103.313 11.865 102.976C13.2885 102.638 14.7603 102.565 16.208 102.734C16.9318 102.807 17.6556 102.976 18.3553 103.169C19.055 103.362 19.7547 103.627 20.4062 103.941C23.0361 105.22 25.2558 107.439 26.5104 110.142C26.8241 110.817 27.0895 111.517 27.3067 112.241C27.4997 112.964 27.6444 113.712 27.7168 114.46C27.8857 115.956 27.7892 117.5 27.4273 118.996C27.6927 118.273 27.8616 117.525 27.9822 116.752C28.1029 115.98 28.1511 115.208 28.127 114.436C28.1029 112.868 27.7651 111.3 27.186 109.852C26.607 108.38 25.7625 107.005 24.7009 105.823C23.6393 104.64 22.3605 103.627 20.937 102.879C18.114 101.359 14.7121 100.901 11.5513 101.552C8.36649 102.228 5.47118 104.061 3.46859 106.595C2.47936 107.874 1.70728 109.345 1.2006 110.865C0.959323 111.637 0.766298 112.434 0.64566 113.23C0.525022 114.026 0.476767 114.846 0.525022 115.643C0.597405 117.259 0.911067 118.876 1.53838 120.372C2.14157 121.868 3.01017 123.243 4.09591 124.449C5.18165 125.631 6.46042 126.645 7.85982 127.393C9.25922 128.141 10.8034 128.623 12.3717 128.84C15.5083 129.275 18.7414 128.551 21.323 126.838C18.5483 128.237 15.3876 128.696 12.4682 128.092ZM9.79022 109.805C9.25941 110.263 8.77686 110.818 8.39081 111.422C7.98065 112.025 7.71524 112.7 7.44984 113.472C7.23269 114.172 7.16031 114.896 7.13618 115.62C7.16031 116.344 7.23269 117.067 7.44984 117.767C7.66699 118.467 7.98064 119.142 8.36669 119.77C8.77685 120.373 9.28354 120.952 9.83847 121.459C10.3934 121.965 11.0448 122.375 11.7445 122.713L12.2754 122.93L12.4201 122.979L12.5649 123.027L12.8544 123.123C13.1118 123.22 13.3691 123.274 13.6265 123.327C13.7552 123.354 13.8839 123.381 14.0125 123.413C13.2163 123.413 12.4201 123.316 11.6239 123.099C10.8518 122.858 10.1039 122.496 9.40418 122.038C8.70448 121.555 8.10128 120.976 7.57048 120.325C7.0638 119.673 6.65363 118.925 6.33997 118.129C6.02631 117.333 5.85742 116.488 5.80917 115.62C5.76091 114.775 5.85742 113.907 6.05044 113.062C6.29172 112.218 6.60537 111.422 7.0638 110.674C7.52222 109.95 8.07715 109.274 8.7286 108.695C9.40417 108.116 10.128 107.658 10.9242 107.296C11.7204 106.958 12.5649 106.741 13.4335 106.62C14.3021 106.524 15.1707 106.572 16.0151 106.717C16.8596 106.886 17.6799 107.151 18.4279 107.561C19.1759 107.971 19.8755 108.478 20.4546 109.081C21.0337 109.684 21.5162 110.36 21.9023 111.108C22.2642 111.856 22.5055 112.652 22.6502 113.448C22.7709 114.269 22.7467 115.065 22.6261 115.861C22.6215 115.782 22.6177 115.704 22.614 115.627C22.5984 115.302 22.5834 114.991 22.5055 114.679L22.4572 114.389L22.4331 114.244L22.3848 114.1L22.2401 113.545C21.9988 112.821 21.661 112.121 21.2508 111.494C20.8165 110.867 20.3098 110.288 19.7549 109.805C19.2 109.322 18.5727 108.936 17.8971 108.623L17.3904 108.43L17.2698 108.381L17.1491 108.333L16.8837 108.261L16.6183 108.188C16.5701 108.176 16.5278 108.17 16.4856 108.164C16.4434 108.158 16.4012 108.152 16.3529 108.14C16.2685 108.128 16.178 108.11 16.0875 108.092C15.997 108.074 15.9065 108.056 15.8221 108.044C15.0983 107.947 14.3745 107.947 13.6506 108.044C12.9509 108.164 12.2512 108.357 11.5998 108.647C10.9483 108.936 10.3452 109.347 9.79022 109.805Z" fill="url(#paint0_linear_5702_144)"/>
<defs>
<linearGradient id="paint0_linear_5702_144" x1="-35.1508" y1="45.4116" x2="42.5433" y2="154.71" gradientUnits="userSpaceOnUse">
<stop stop-color="#DEFEBB"/>
<stop offset="1" stop-color="#07AB67"/>
</linearGradient>
</defs>
</svg>
